<svg width="24" height="24" viewBox="0 0 24 24" fill="none" xmlns="http://www.w3.org/2000/svg">
<path d="M0.749023 16.5H16.707C17.0663 16.5002 17.4137 16.3713 17.6861 16.137C17.9584 15.9026 18.1376 15.5783 18.191 15.223L20.058 2.777C20.1114 2.42187 20.2904 2.09767 20.5626 1.86334C20.8347 1.629 21.1819 1.50008 21.541 1.5H23.249" stroke="#F2F2F2" stroke-width="1.5" stroke-linecap="round" stroke-linejoin="round"/>
<path d="M7.49902 7.5H2.99902C2.58481 7.5 2.24902 7.83579 2.24902 8.25V12.75C2.24902 13.1642 2.58481 13.5 2.99902 13.5H7.49902C7.91324 13.5 8.24902 13.1642 8.24902 12.75V8.25C8.24902 7.83579 7.91324 7.5 7.49902 7.5Z" stroke="#F2F2F2" stroke-width="1.5" stroke-linecap="round" stroke-linejoin="round"/>
<path d="M14.999 4.5H8.99902C8.58481 4.5 8.24902 4.83579 8.24902 5.25V12.75C8.24902 13.1642 8.58481 13.5 8.99902 13.5H14.999C15.4132 13.5 15.749 13.1642 15.749 12.75V5.25C15.749 4.83579 15.4132 4.5 14.999 4.5Z" stroke="#F2F2F2" stroke-width="1.5" stroke-linecap="round" stroke-linejoin="round"/>
<path d="M4.12402 22.5C5.15956 22.5 5.99902 21.6605 5.99902 20.625C5.99902 19.5895 5.15956 18.75 4.12402 18.75C3.08849 18.75 2.24902 19.5895 2.24902 20.625C2.24902 21.6605 3.08849 22.5 4.12402 22.5Z" stroke="#F2F2F2" stroke-width="1.5" stroke-linecap="round" stroke-linejoin="round"/>
<path d="M14.624 22.5C15.6596 22.5 16.499 21.6605 16.499 20.625C16.499 19.5895 15.6596 18.75 14.624 18.75C13.5885 18.75 12.749 19.5895 12.749 20.625C12.749 21.6605 13.5885 22.5 14.624 22.5Z" stroke="#F2F2F2" stroke-width="1.5" stroke-linecap="round" stroke-linejoin="round"/>
</svg>
