<svg width="24" height="24" viewBox="0 0 24 24" fill="none" xmlns="http://www.w3.org/2000/svg">
<g clip-path="url(#clip0)">
<path d="M2.15996 0.781006C4.75996 3.10901 4.13196 2.16901 5.48096 3.03801C5.82499 3.26621 6.09638 3.58827 6.26296 3.96601C6.48675 4.50684 6.49078 5.11363 6.2742 5.65739C6.05761 6.20115 5.63748 6.63899 5.10313 6.87784C4.56878 7.11669 3.96233 7.13771 3.41272 6.93644C2.86311 6.73516 2.41368 6.32746 2.15996 5.80001C1.77511 5.01943 1.57495 4.1608 1.57495 3.29051C1.57495 2.42021 1.77511 1.56158 2.15996 0.781006V0.781006Z" stroke="#F2F2F2" stroke-width="1.5" stroke-linecap="round" stroke-linejoin="round"/>
<path d="M4.22498 7.13199L5.15498 9.77299" stroke="#F2F2F2" stroke-width="1.5" stroke-linecap="round" stroke-linejoin="round"/>
<path d="M11.9 23.26H7.40002C6.20655 23.26 5.06196 22.7859 4.21804 21.942C3.37413 21.0981 2.90002 19.9535 2.90002 18.76V9.77301H16.4V18.764C16.399 19.9568 15.9244 21.1004 15.0806 21.9434C14.2368 22.7865 13.0928 23.26 11.9 23.26V23.26Z" stroke="#F2F2F2" stroke-width="1.5" stroke-linecap="round" stroke-linejoin="round"/>
<path d="M17.8999 18.764H16.3999V9.77301H17.8999C19.0934 9.77301 20.238 10.2471 21.0819 11.091C21.9258 11.9349 22.3999 13.0795 22.3999 14.273V14.273C22.3975 15.4649 21.9224 16.6072 21.0787 17.4492C20.235 18.2911 19.0918 18.764 17.8999 18.764V18.764Z" stroke="#F2F2F2" stroke-width="1.5" stroke-linecap="round" stroke-linejoin="round"/>
<path d="M6.23389 5.86401L8.65989 9.77301" stroke="#F2F2F2" stroke-width="1.5" stroke-linecap="round" stroke-linejoin="round"/>
<path d="M9.63599 9.77301L11.657 4.04601L15.061 0.76001L15.647 5.45501L14.123 9.77301" stroke="#F2F2F2" stroke-width="1.5" stroke-linecap="round" stroke-linejoin="round"/>
<path d="M15.4131 6.12C14.685 6.34802 13.9025 6.33398 13.183 6.07996C12.4635 5.82595 11.8457 5.34564 11.4221 4.711" stroke="#F2F2F2" stroke-width="1.5" stroke-linecap="round" stroke-linejoin="round"/>
</g>
<defs>
<clipPath id="clip0">
<rect width="24" height="24" fill="white"/>
</clipPath>
</defs>
</svg>
